<svg width="300" height="200" xmlns="http://www.w3.org/2000/svg">
    <defs>
      <linearGradient id="gradient-k7ihu7698" x1="0%" y1="0%" x2="100%" y2="100%">
        <stop offset="0%" style="stop-color:#111827;stop-opacity:1" />
        <stop offset="50%" style="stop-color:#1f2937;stop-opacity:1" />
        <stop offset="100%" style="stop-color:#064e3b;stop-opacity:1" />
      </linearGradient>

      <!-- Tech pattern -->
      <pattern id="tech-pattern" x="0" y="0" width="100" height="100" patternUnits="userSpaceOnUse">
        <circle cx="25" cy="25" r="2" fill="#10b981" opacity="0.1"/>
        <circle cx="75" cy="75" r="2" fill="#6ee7b7" opacity="0.1"/>
        <line x1="25" y1="25" x2="75" y2="75" stroke="#10b981" stroke-width="1" opacity="0.05"/>
      </pattern>
    </defs>

    <!-- Background -->
    <rect width="100%" height="100%" fill="url(#gradient-k7ihu7698)"/>
    <rect width="100%" height="100%" fill="url(#tech-pattern)"/>

    <!-- Main content area -->
    <rect x="80" y="50" width="140" height="100"
          fill="#374151" rx="12" opacity="0.9"/>

    <!-- Accent elements -->
    <rect x="80" y="50" width="8" height="100"
          fill="#10b981" rx="4"/>

    <!-- AI/Tech icon representation -->
    <g transform="translate(150, 60)">
      <circle cx="40" cy="40" r="30" fill="none" stroke="#10b981" stroke-width="2" opacity="0.6"/>
      <circle cx="40" cy="40" r="20" fill="none" stroke="#6ee7b7" stroke-width="2" opacity="0.4"/>
      <circle cx="40" cy="40" r="10" fill="#10b981" opacity="0.3"/>

      <!-- Neural network nodes -->
      <circle cx="20" cy="25" r="3" fill="#10b981"/>
      <circle cx="60" cy="25" r="3" fill="#10b981"/>
      <circle cx="20" cy="55" r="3" fill="#10b981"/>
      <circle cx="60" cy="55" r="3" fill="#10b981"/>

      <!-- Connections -->
      <line x1="20" y1="25" x2="40" y2="40" stroke="#6ee7b7" stroke-width="1" opacity="0.6"/>
      <line x1="60" y1="25" x2="40" y2="40" stroke="#6ee7b7" stroke-width="1" opacity="0.6"/>
      <line x1="20" y1="55" x2="40" y2="40" stroke="#6ee7b7" stroke-width="1" opacity="0.6"/>
      <line x1="60" y1="55" x2="40" y2="40" stroke="#6ee7b7" stroke-width="1" opacity="0.6"/>
    </g>

    <!-- Title text -->
    <text x="120" y="90"
          font-family="system-ui, -apple-system, sans-serif"
          font-size="12"
          font-weight="700"
          fill="#ffffff">
      RevOps Metrics for Legal: Measuring AI
    </text>

    <!-- Subtitle -->
    <text x="120" y="110.00000000000001"
          font-family="system-ui, -apple-system, sans-serif"
          font-size="7.5"
          font-weight="500"
          fill="#d1d5db">
      Native Legal Implementation Guide
    </text>

    <!-- Brand accent -->
    <text x="120" y="130"
          font-family="system-ui, -apple-system, sans-serif"
          font-size="6"
          font-weight="600"
          fill="#10b981">
      NATIVE LEGAL
    </text>
  </svg>